<?xml version="1.0" encoding="utf-8"?>
<!-- Generator: Adobe Illustrator 23.0.0, SVG Export Plug-In . SVG Version: 6.00 Build 0)  -->
<svg version="1.1" id="图层_1" xmlns="http://www.w3.org/2000/svg" xmlns:xlink="http://www.w3.org/1999/xlink" x="0px" y="0px"
	 viewBox="0 0 124.1 33.4" style="enable-background:new 0 0 124.1 33.4;" xml:space="preserve">
<style type="text/css">
	.st0{fill:#2D3235;}
	.st1{fill:#FFFFFF;}
	.st2{fill:#B3B3B3;}
	.st3{fill:#1A98FF;}
	.st4{fill:#FF1D25;}
	.st5{fill:#E5E5E5;}
	.st6{fill:#40474C;}
	.st7{fill:none;}
	.st8{fill:#353535;}
	.st9{fill:none;stroke:#FFFFFF;stroke-linecap:round;stroke-linejoin:round;stroke-miterlimit:10;}
	.st10{fill:none;stroke:#232323;stroke-width:0.25;stroke-miterlimit:10;}
	.st11{fill:#1F8FFF;}
	.st12{fill:#DEE1E2;}
	.st13{fill:#F2F2F2;}
	.st14{fill:#FFFFFF;stroke:#808080;stroke-width:0.5;stroke-miterlimit:10;}
	.st15{fill:#1662D3;}
	.st16{fill:#666666;}
	.st17{fill:#808080;}
	.st18{fill:#DCEDF7;}
	.st19{fill:none;stroke:#808080;stroke-width:2;stroke-miterlimit:10;}
	.st20{fill:#CCCCCC;}
	.st21{fill:#373D42;}
	.st22{fill:#22B573;}
	.st23{fill:#6CB7F4;}
	.st24{fill:none;stroke:#6CB7F4;stroke-miterlimit:10;}
	.st25{fill:none;stroke:#FFFFFF;stroke-width:1.5;stroke-miterlimit:10;}
	.st26{opacity:0.5;fill:#4D4D4D;}
	.st27{fill:none;stroke:#4D4D4D;stroke-width:0.25;stroke-miterlimit:10;}
	.st28{fill:none;stroke:#666666;stroke-width:2;stroke-linecap:round;stroke-linejoin:round;stroke-miterlimit:10;}
</style>
<g>
	<g>
		<path class="st1" d="M40.47,9.55h4.26c3.13,0,5.36,1.07,5.36,4.24c0,3.07-2.23,4.49-5.29,4.49h-2.12v5.33h-2.21V9.55z
			 M44.59,16.49c2.25,0,3.32-0.86,3.32-2.71s-1.16-2.46-3.4-2.46h-1.83v5.17H44.59z"/>
		<path class="st1" d="M50.96,20.81c0-2.25,1.91-3.42,6.28-3.89c-0.02-1.22-0.46-2.29-2-2.29c-1.11,0-2.14,0.5-3.03,1.07l-0.82-1.49
			c1.09-0.69,2.56-1.37,4.24-1.37c2.61,0,3.82,1.66,3.82,4.45v6.32h-1.79l-0.19-1.2H57.4c-0.95,0.82-2.08,1.45-3.34,1.45
			C52.24,23.84,50.96,22.66,50.96,20.81z M57.24,20.88v-2.58c-3.11,0.38-4.16,1.16-4.16,2.35c0,1.03,0.71,1.45,1.64,1.45
			C55.64,22.11,56.38,21.67,57.24,20.88z"/>
		<path class="st1" d="M62.36,13.1h1.79l0.17,1.15h0.06c0.92-0.76,2.06-1.41,3.23-1.41c2.67,0,4.16,2.12,4.16,5.34
			c0,3.61-2.16,5.67-4.52,5.67c-0.94,0-1.87-0.42-2.77-1.18l0.06,1.79v3.4h-2.18V13.1z M69.5,18.21c0-2.19-0.71-3.55-2.46-3.55
			c-0.82,0-1.6,0.42-2.5,1.28v5.13c0.82,0.71,1.64,0.95,2.29,0.95C68.35,22.03,69.5,20.67,69.5,18.21z"/>
		<path class="st1" d="M73.45,18.37c0-3.42,2.33-5.54,4.79-5.54c2.79,0,4.28,2,4.28,4.98c0,0.42-0.04,0.86-0.1,1.11H75.6
			c0.17,2,1.43,3.21,3.24,3.21c0.94,0,1.74-0.29,2.5-0.78l0.76,1.39c-0.97,0.65-2.18,1.11-3.55,1.11
			C75.72,23.84,73.45,21.82,73.45,18.37z M80.62,17.41c0-1.81-0.82-2.86-2.35-2.86c-1.32,0-2.48,1.01-2.69,2.86H80.62z"/>
		<path class="st1" d="M84.78,13.1h1.79l0.17,1.89h0.06c0.74-1.36,1.85-2.16,2.98-2.16c0.52,0,0.86,0.08,1.18,0.23l-0.4,1.91
			c-0.36-0.11-0.63-0.17-1.05-0.17c-0.86,0-1.89,0.59-2.56,2.25v6.55h-2.18V13.1z"/>
		<path class="st1" d="M92.59,9.55h4.35c2.88,0,4.96,0.92,4.96,3.45c0,1.34-0.74,2.61-2,3.03v0.1c1.6,0.34,2.77,1.43,2.77,3.34
			c0,2.79-2.27,4.12-5.38,4.12h-4.7V9.55z M96.69,15.41c2.14,0,3.03-0.8,3.03-2.12c0-1.47-0.99-2.02-2.98-2.02H94.8v4.14H96.69z
			 M97.04,21.86c2.2,0,3.45-0.78,3.45-2.5c0-1.58-1.22-2.27-3.45-2.27H94.8v4.77H97.04z"/>
		<path class="st1" d="M104.2,18.37c0-3.51,2.35-5.54,4.94-5.54c2.6,0,4.94,2.02,4.94,5.54c0,3.47-2.35,5.48-4.94,5.48
			C106.54,23.84,104.2,21.84,104.2,18.37z M111.83,18.37c0-2.23-1.03-3.72-2.69-3.72c-1.64,0-2.67,1.49-2.67,3.72
			c0,2.21,1.03,3.68,2.67,3.68C110.8,22.05,111.83,20.58,111.83,18.37z"/>
		<path class="st1" d="M118.05,18.12l-3.15-5.02h2.37l1.26,2.12c0.31,0.57,0.65,1.16,0.99,1.76h0.08c0.29-0.59,0.59-1.18,0.88-1.76
			l1.11-2.12h2.29l-3.15,5.27l3.38,5.23h-2.39l-1.37-2.21c-0.34-0.63-0.71-1.28-1.09-1.87h-0.1c-0.32,0.59-0.65,1.22-0.97,1.87
			l-1.22,2.21h-2.31L118.05,18.12z"/>
	</g>
	<path class="st2" d="M2.32,28.49v-4.16l-1.41-1.77C0.61,22.18,0,22.4,0,22.89v7.02c0,1.93,1.56,3.49,3.49,3.49h4.98
		c0.43,0,0.67-0.5,0.4-0.84l-1.18-1.49H4.91C3.49,31.08,2.32,29.92,2.32,28.49z"/>
	<g>
		<g>
			<path class="st1" d="M27.39,31.08H4.91c-1.43,0-2.59-1.16-2.59-2.59V2.59C2.32,1.16,3.49,0,4.91,0h19.56
				c0.34,0,0.61,0.27,0.61,0.61s-0.27,0.61-0.61,0.61H4.91c-0.75,0-1.36,0.61-1.36,1.36v25.9c0,0.75,0.61,1.36,1.36,1.36h22.48
				c0.75,0,1.36-0.61,1.36-1.36V6.97c0-0.34,0.27-0.61,0.61-0.61c0.34,0,0.61,0.27,0.61,0.61v21.52
				C29.98,29.92,28.82,31.08,27.39,31.08z"/>
		</g>
	</g>
	<g>
		<g>
			<path class="st1" d="M22.75,19.34c0-0.04,0-0.07,0-0.11h-0.01C22.59,13.35,16,13.86,16,13.86l-2.66,0.24h-1.69v1.96l1.69,0
				c0,0-2.08-0.02,2.61-0.02c4.31,0,4.62,2.44,4.61,3.19h-0.01c0,0,0.01,0.04,0.01,0.11c0,0.07-0.01,0.11-0.01,0.11h0.01
				c0.01,0.75-0.31,3.19-4.61,3.19c-4.7,0-2.61-0.02-2.61-0.02l-1.69,0v2.2h1.69H16c0,0,6.59,0.51,6.75-5.37h0.01
				C22.76,19.42,22.75,19.38,22.75,19.34z"/>
		</g>
	</g>
	<g>
		<g>
			<path class="st3" d="M15.3,6.77h-4.16c0,0,0,3.16,0,4.4c0,0.27,0,0.45,0,0.49c0,0.41,0,1.03,0,1.67c0,1.31,0,2.73,0,2.73v8.77
				h2.2v-8.77h1.96c0,0,5.87,0.24,5.87-4.65S15.3,6.77,15.3,6.77z M15.3,13.86c-0.98,0-1.59,0-1.96,0v-0.53v-1.67v-0.49v-2.2
				c0.37,0,0.98,0,1.96,0c3.92,0,3.67,2.45,3.67,2.45S19.21,13.86,15.3,13.86z"/>
		</g>
	</g>
</g>
</svg>
