<?xml version="1.0" encoding="UTF-8"?>
<svg width="70px" height="18px" viewBox="0 0 70 18" version="1.1" xmlns="http://www.w3.org/2000/svg" xmlns:xlink="http://www.w3.org/1999/xlink">
    <title>logo/dark</title>
    <g id="-□-切图" stroke="none" stroke-width="1" fill="none" fill-rule="evenodd">
        <g id="切图" transform="translate(-230.000000, -408.000000)" fill="#161616">
            <g id="logo/dark_export" transform="translate(230.000000, 408.000000)">
                <g id="logo/white">
                    <g id="编组" transform="translate(0.621302, 0.627907)">
                        <path d="M61.3769583,0 C62.4451524,0 63.4303821,0.19865377 64.3344073,0.595619887 C65.2378877,0.992346751 66.0148825,1.55619238 66.6670938,2.28827185 C67.3205633,3.02176364 67.8289991,3.90425748 68.192384,4.93734362 C68.556432,5.97231502 68.7387843,7.11694309 68.7387843,8.37209302 C68.7387843,9.64811375 68.5564443,10.7977976 68.1926037,11.8219379 C67.8292434,12.8447262 67.3207589,13.7222028 66.6670938,14.4559142 C66.0148825,15.1879937 65.2378877,15.7518393 64.3344073,16.1485662 C63.4303821,16.5455323 62.4451524,16.744186 61.3769583,16.744186 C60.3087642,16.744186 59.3235345,16.5455323 58.4195093,16.1485662 C57.5160289,15.7518393 56.7390341,15.1879937 56.0868228,14.4559142 C55.4331577,13.7222028 54.9246732,12.8447262 54.5613129,11.8219379 C54.1974723,10.7977976 54.0151323,9.64811375 54.0151323,8.37209302 C54.0151323,7.11694309 54.1974846,5.97231502 54.5615326,4.93734362 C54.9249175,3.90425748 55.4333533,3.02176364 56.0868228,2.28827185 C56.7390341,1.55619238 57.5160289,0.992346751 58.4195093,0.595619887 C59.3235345,0.19865377 60.3087642,0 61.3769583,0 Z M2.47050296,0.40855814 L2.47067659,8.74929721 L2.47111761,8.87905077 L2.47242939,9.00636811 C2.49860694,10.9045968 2.81741565,12.2839402 3.44109124,13.1476585 C4.10483036,14.0668602 5.21215823,14.5223614 6.74142222,14.5223614 C7.05601912,14.5223614 7.38087594,14.5117424 7.71600108,14.4905179 C8.0498523,14.4693741 8.36309858,14.4429223 8.65577519,14.411146 C8.94680926,14.3795482 9.21204471,14.3479281 9.45152529,14.3162751 L9.45152529,14.3162751 L9.51917756,14.3069476 C9.71702379,14.2784782 9.86899787,14.2455582 9.97841928,14.2063751 L9.97841928,14.2063751 L10.1436025,14.1435657 L10.1435799,0.40855814 L12.6140828,0.40855814 L12.6140828,15.9092791 L12.5033392,15.9359456 C11.9467501,16.0681785 11.2595157,16.2071643 10.4423064,16.3526901 L10.4423064,16.3526901 L10.1650903,16.4014406 C9.09180673,16.5878846 7.84703911,16.6813187 6.43122031,16.6813187 C5.21666456,16.6813187 4.19959176,16.5027442 3.379665,16.1481104 C2.5632303,15.7949871 1.9091545,15.2978912 1.41421346,14.655922 C0.91535676,14.0088738 0.555559673,13.2442411 0.334934209,12.3601378 C0.124238423,11.5158253 0.012792785,10.582387 0.0010391854,9.55972771 L0.0010391854,9.55972771 L-3.45770881e-06,9.37676141 L-3.45770881e-06,0.40855814 L2.47050296,0.40855814 Z M36.351011,0 C37.4857081,0 38.4385258,0.148148353 39.2092548,0.442292185 C39.9750486,0.734552571 40.587798,1.14515908 41.050539,1.67392909 C41.5151316,2.2048148 41.8464875,2.83626821 42.0450703,3.57075706 C42.2341739,4.27018573 42.3348825,5.03886993 42.3467581,5.87703291 L42.3467581,5.87703291 L42.3479538,6.04749098 L42.3479538,16.0844651 L41.4825102,16.228264 C41.0415615,16.3010031 40.5435055,16.3686427 39.9884628,16.4311362 C39.4323507,16.49375 38.8296125,16.5511731 38.1802838,16.603394 C37.5342992,16.6553461 36.8935251,16.6813187 36.2579504,16.6813187 C35.3640034,16.6813187 34.5428639,16.5888648 33.7943868,16.4043759 C33.0544663,16.2219962 32.4173285,15.9344888 31.8814906,15.5423362 C31.3520786,15.1548864 30.9403222,14.6432645 30.6447856,14.0043824 C30.3483078,13.3634655 30.1989724,12.5866583 30.1989724,11.6726297 C30.1989724,10.8059042 30.3716914,10.0658142 30.7151894,9.44922104 C31.0603521,8.82963977 31.5276608,8.33117886 32.1192047,7.95154046 C32.7187359,7.56677604 33.4204017,7.28236852 34.2251742,7.09888103 C35.0371469,6.9137519 35.8904387,6.82110912 36.7852936,6.82110912 C37.0677829,6.82110912 37.3607589,6.83646506 37.6642174,6.86721541 C37.9688,6.89807966 38.2577822,6.93917922 38.5311465,6.99047702 C38.7398483,7.02964068 38.9281725,7.06585015 39.0960921,7.09909883 L39.0960921,7.09909883 L39.4553576,7.17233171 C39.5421013,7.19072274 39.6102903,7.20595635 39.6596598,7.21796297 L39.6596598,7.21796297 L39.9393124,7.28730282 L39.9393124,6.20316892 L39.9377492,6.05645985 L39.9329375,5.90708808 C39.9158421,5.50939954 39.8646326,5.11673962 39.7793051,4.72764756 C39.6697037,4.22786733 39.4715593,3.78167694 39.1851536,3.39099155 C38.8951125,2.99534725 38.5007703,2.68017083 38.0053023,2.44587033 C37.5095082,2.21141563 36.8754315,2.09608996 36.1028494,2.09608996 C35.1394014,2.09608996 34.2943774,2.16523123 33.5672808,2.30404646 L33.5672808,2.30404646 L33.4595264,2.32492532 L33.2522026,2.36696406 C32.8484572,2.45142293 32.510083,2.53819713 32.2362989,2.62777097 L32.2362989,2.62777097 L32.1768047,2.64767442 L31.8947337,0.64527907 L31.9401753,0.628482678 L31.9961067,0.608494839 C32.3588433,0.481926753 32.8830944,0.355809296 33.5646741,0.232476253 C34.4207467,0.0775684233 35.3495298,0 36.351011,0 Z M21.3135652,0.0628673652 C22.5696195,0.0628673652 23.6074997,0.241556795 24.4271608,0.596075626 C25.2435912,0.949197112 25.8923686,1.44101158 26.3768279,2.07219059 C26.8643044,2.70730058 27.2083787,3.47031174 27.408687,4.3634163 C27.5999579,5.21622666 27.7014135,6.15292137 27.7127048,7.17353587 L27.7127048,7.17353587 L27.7137685,7.36737938 L27.7135799,16.3354186 L25.2430769,16.3354186 L25.2430887,7.99488883 L25.2425288,7.83653542 L25.2406944,7.67009612 C25.227518,6.78972128 25.1600485,6.02614285 25.0377926,5.37812593 C24.8981335,4.63786364 24.6650919,4.03376416 24.336099,3.56703462 C24.0019632,3.0930089 23.5552053,2.74781515 23.0003525,2.53416059 C22.4575918,2.3251623 21.7920494,2.22182469 21.0033632,2.22182469 C20.6887663,2.22182469 20.3639095,2.23244362 20.0287844,2.25366814 C19.6951567,2.27479782 19.3769856,2.30122505 19.0742547,2.33295949 C18.7698655,2.36486777 18.4963405,2.40217924 18.2535197,2.44497186 C18.1000027,2.47202636 17.9741988,2.49476392 17.8759077,2.51322681 L17.8759077,2.51322681 L17.5701628,2.5735664 L17.57,16.3354186 L15.0992899,16.3354186 L15.0992899,0.834906977 L15.2106383,0.808252815 C15.768179,0.676043629 16.4595639,0.537068145 17.2840909,0.391549369 L17.2840909,0.391549369 L17.5638635,0.342801072 C18.6476307,0.156311983 19.8976618,0.0628673652 21.3135652,0.0628673652 Z M50.5819318,0.0628673652 C50.8229312,0.0628673652 51.100724,0.0782216733 51.4149855,0.109039468 C51.7308238,0.140011895 52.0414821,0.181297039 52.3469673,0.232889919 C52.6550555,0.28492241 52.9372287,0.336910499 53.1934381,0.38883542 L53.1934381,0.38883542 L53.3249254,0.416295266 C53.4080557,0.434223079 53.4821089,0.451384412 53.5469572,0.467725385 L53.5469572,0.467725385 L53.5680178,0.473023256 L53.1536095,2.59911628 L53.0372106,2.56561787 C52.860522,2.51618264 52.6470555,2.46321591 52.3961072,2.40643093 L52.3961072,2.40643093 L52.2232477,2.36800547 C51.679728,2.24921309 50.9884253,2.190391 50.1476491,2.190391 C49.5952362,2.190391 49.0480483,2.2496075 48.5063332,2.36800547 C48.0818262,2.46078629 47.774099,2.52990083 47.5821232,2.57560637 L47.5821232,2.57560637 L47.3038323,2.64462493 L47.3036391,16.3354186 L44.8331361,16.3354186 L44.8331361,1.03834884 L44.9153447,1.00957952 C45.5477698,0.790808325 46.3141666,0.583472282 47.2132151,0.388251007 C48.2114748,0.17148682 49.3344242,0.0628673652 50.5819318,0.0628673652 Z M37.0334552,8.76003067 C36.5901003,8.76003067 36.121219,8.792062 35.6267622,8.85602555 C35.1188112,8.92173472 34.6523591,9.05913873 34.2282891,9.26849083 C33.7971925,9.4813118 33.4364818,9.7737269 33.1481905,10.1445126 C32.8485042,10.5299539 32.7006691,11.0312267 32.7006691,11.641196 C32.7006691,12.7565892 33.0629983,13.5540125 33.7924373,14.0044395 C34.4904869,14.4354836 35.4265876,14.6480961 36.5991725,14.6480961 C37.1798795,14.6480961 37.7051723,14.6367688 38.1751689,14.6140831 L38.1751689,14.6140831 L38.4260474,14.6005825 C38.9257001,14.5707993 39.3499313,14.5177314 39.6995699,14.4408348 L39.6995699,14.4408348 L39.9393124,14.3859371 L39.9393124,9.21475278 L39.7838869,9.13946685 L39.7358846,9.11814377 C39.5051892,9.01991619 39.1807533,8.93950686 38.7559714,8.87254887 C38.2790874,8.79737809 37.7051847,8.76003067 37.0334552,8.76003067 Z M61.3769583,2.15895732 C59.9070448,2.15895732 58.7343727,2.72823765 57.877795,3.85992821 C57.0307274,4.97905417 56.6098896,6.48511553 56.6098896,8.37209302 C56.6098896,10.2590705 57.0307274,11.7651319 57.877795,12.8842578 C58.7343727,14.0159484 59.9070448,14.5852287 61.3769583,14.5852287 C62.8468717,14.5852287 64.0195439,14.0159484 64.8761216,12.8842578 C65.7231892,11.7651319 66.144027,10.2590705 66.144027,8.37209302 C66.144027,6.48511553 65.7231892,4.97905417 64.8761216,3.85992821 C64.0195439,2.72823765 62.8468717,2.15895732 61.3769583,2.15895732 Z" id="形状结合"></path>
                    </g>
                </g>
            </g>
        </g>
    </g>
</svg>